<?xml version="1.0" encoding="UTF-8"?>
<svg width="24px" height="24px" viewBox="0 0 24 24" version="1.1" xmlns="http://www.w3.org/2000/svg" xmlns:xlink="http://www.w3.org/1999/xlink">
    <!-- Generator: sketchtool 51.1 (57501) - http://www.bohemiancoding.com/sketch -->
    <title>DA8CF272-E7F2-449B-9197-4D5195517F01</title>
    <desc>Created with sketchtool.</desc>
    <defs></defs>
    <g id="Symbols" stroke="none" stroke-width="1" fill="none" fill-rule="evenodd">
        <g id="icons/wizard/black/group">
            <polygon id="Shape-Copy-2" points="0 0 24 0 24 24 0 24"></polygon>
            <path d="M9.99876436,14.9960683 L9.99876436,20.9971896 C9.99876436,20.9746751 11.3320519,20.9756119 13.9986271,21 C13.9734715,21 13.972663,18.9986894 13.9962015,14.9960683 L14.9962015,14.9960683 C14.979927,14.9960683 14.9811931,13.3314152 15,10.0021089 C15,10.0236287 12.9997102,10.0229258 8.99913047,10 C9.01828013,10 9.01856997,11.6694715 9,15.0084146 C8.99973305,15.0001801 9.3326545,14.9960647 9.99876436,14.9960683 Z M8,15.0084146 L8,10.0021089 C8,9.46602957 8.48485847,9 8.99913047,9 L15.0014797,9 C15.5009988,9 16,9.46602957 16,10.0021089 L16,15.0084146 C16,15.544291 15.5009988,15.9960683 14.9962015,15.9960683 L14.9962015,20.9971896 C14.9962015,21.533269 14.4973896,22 13.9986271,22 L10.0011899,22 C9.5016708,22 8.99876436,21.533269 8.99876436,20.9971896 L8.99876436,15.9960683 C8.50000185,15.9960683 8,15.5434791 8,15.0084146 Z" id="Fill-10" fill="#666666" fill-rule="nonzero"></path>
            <path d="M12,7 C12.5522847,7 13,6.55228475 13,6 C13,5.44771525 12.5522847,5 12,5 C11.4477153,5 11,5.44771525 11,6 C11,6.55228475 11.4477153,7 12,7 Z M12,8 C10.8954305,8 10,7.1045695 10,6 C10,4.8954305 10.8954305,4 12,4 C13.1045695,4 14,4.8954305 14,6 C14,7.1045695 13.1045695,8 12,8 Z" id="Oval" fill="#666666" fill-rule="nonzero"></path>
            <path d="M16,19.0055542 C16,18.9833502 17.3333944,18.98452 20.0001831,19.0090637 C19.9750518,19.0090637 19.9743296,17.0063578 19.9980164,13.000946 L20.9980164,13.000946 C20.9817693,13.000946 20.9831223,11.3348999 21.0020752,8.00280762 C21.0020752,8.02401694 19.3347168,8.02308106 16,8 L16,19.0055542 Z M16,8.00280762 L16,7 L21.0032959,7 C21.5029445,7 22.0020752,7.46635449 22.0020752,8.00280762 L22.0020752,13.0126038 C22.0020752,13.5488538 21.5029445,14.000946 20.9980164,14.000946 L20.9980164,19.0055542 C20.9980164,19.5420073 20.499075,20 20.0001831,20 L16,20 L16,19 L16,8.00280762 Z" id="Combined-Shape" fill="#666666"></path>
            <path d="M18,5 C18.5522847,5 19,4.55228475 19,4 C19,3.44771525 18.5522847,3 18,3 C17.4477153,3 17,3.44771525 17,4 C17,4.55228475 17.4477153,5 18,5 Z M18,6 C16.8954305,6 16,5.1045695 16,4 C16,2.8954305 16.8954305,2 18,2 C19.1045695,2 20,2.8954305 20,4 C20,5.1045695 19.1045695,6 18,6 Z" id="Oval" fill="#666666" fill-rule="nonzero"></path>
            <path d="M2.0020752,19.0055542 C2.0020752,18.9833502 3.33500855,18.98452 6.00087525,19.0090637 C5.97575265,19.0090637 5.97503065,17.0063578 5.99870925,13.000946 L6.99836351,13.000946 C6.98212212,13.000946 6.98347459,11.3348999 7.00242094,8.00280762 C7.00242094,8.02401694 5.33563903,8.02308106 2.0020752,8 L2.0020752,19.0055542 Z M2.0020752,8.00280762 L2.0020752,7 L7.00364122,7 C7.50311712,7 8.0020752,7.46635449 8.0020752,8.00280762 L8.0020752,13.0126038 C8.0020752,13.5488538 7.50311712,14.000946 6.99836351,14.000946 L6.99836351,19.0055542 C6.99836351,19.5420073 6.49959465,20 6.00087525,20 L2.0020752,20 L2.0020752,19 L2.0020752,8.00280762 Z" id="Combined-Shape-Copy" fill="#666666" transform="translate(5.002075, 13.500000) scale(-1, 1) translate(-5.002075, -13.500000) "></path>
            <path d="M6,5 C6.55228475,5 7,4.55228475 7,4 C7,3.44771525 6.55228475,3 6,3 C5.44771525,3 5,3.44771525 5,4 C5,4.55228475 5.44771525,5 6,5 Z M6,6 C4.8954305,6 4,5.1045695 4,4 C4,2.8954305 4.8954305,2 6,2 C7.1045695,2 8,2.8954305 8,4 C8,5.1045695 7.1045695,6 6,6 Z" id="Oval" fill="#666666" fill-rule="nonzero"></path>
        </g>
    </g>
</svg>