<?xml version="1.0" encoding="UTF-8"?>
<svg width="24px" height="24px" viewBox="0 0 24 24" version="1.1" xmlns="http://www.w3.org/2000/svg" xmlns:xlink="http://www.w3.org/1999/xlink">
    <!-- Generator: sketchtool 51.1 (57501) - http://www.bohemiancoding.com/sketch -->
    <title>25D3876D-7FBB-4E54-9165-CE97CE6D6FEF</title>
    <desc>Created with sketchtool.</desc>
    <defs></defs>
    <g id="Symbols" stroke="none" stroke-width="1" fill="none" fill-rule="evenodd">
        <g id="icons/wizard/black/date">
            <polygon id="Shape-Copy" points="0 0 24 0 24 24 0 24"></polygon>
            <path d="M20.9964447,9.00883484 L3.00517273,9.00883484 L3.00517273,5 C3.00517273,4.52294922 3.47894287,4 4.00283813,4 L7.00198364,4 L7.00198364,7 L7.99890137,7 L7.99890137,4 L15.9999695,4 L15.9999695,7 L17.0020142,7 L17.0020142,4 L20.0011444,4 C20.4989777,4 20.9964447,4.48204041 20.9964447,5 L20.9964447,9.00883484 Z M20.997757,19 C20.997757,19.5216064 20.4928131,20.0069733 20.0024719,20.0069733 L4.0027771,20.0069733 C3.49934387,20.0069733 3.00657654,19.552 3.00657654,19 L3.00657654,10.0019073 L20.997757,10.0019073 L20.997757,19 Z M2,19.0022278 C2,20.1062278 2.89456869,21 3.99680511,21 L20.00354,21 C21.1067749,21 22,20.1031342 22,19.0022278 L22,5 C22,3.89234924 21.1277466,3 20.00354,3 L17.0045471,3.00816345 L17.0045471,1 L16.0014648,1 L16.0014648,3 L8.00457764,3 L8.00457764,1 L7.00088501,1.0018158 L7.00088501,3 L3.99680511,3 C2.88171387,3 2,3.9 2,5 L2,19.0022278 Z" id="calendar" fill="#666666"></path>
        </g>
    </g>
</svg>